inDegrees=no
num_controls=7
num_derivatives=13
num_iterations=163
num_multipliers=7
num_parameters=0
num_slacks=7
num_states=26
objective=5.071761
objective_accelerations=0.334316
objective_balance=0.032315
objective_effort=0.165876
objective_height=4.452178
objective_ligament=0.087076
solver_duration=1811.727266
status=Solve_Succeeded
success=true
DataType=double
version=3
OpenSimVersion=4.4-2022-07-23-0e9fedc
endheader
time	/jointset/ground_pelvis/pelvis_tilt/value	/jointset/ground_pelvis/pelvis_tx/value	/jointset/ground_pelvis/pelvis_ty/value	/jointset/hip_l/hip_flexion_l/value	/jointset/hip_l/hip_adduction_l/value	/jointset/hip_l/hip_rotation_l/value	/jointset/back/lumbar_extension/value	/jointset/patellofemoral_l/patellar_flexion_l/value	/jointset/knee_l/knee_flexion_l/value	/jointset/knee_l/knee_adduction_l/value	/jointset/knee_l/knee_rotation_l/value	/jointset/ankle_l/ankle_angle_l/value	/jointset/subtalar_l/subtalar_angle_l/value	/jointset/ground_pelvis/pelvis_tilt/speed	/jointset/ground_pelvis/pelvis_tx/speed	/jointset/ground_pelvis/pelvis_ty/speed	/jointset/hip_l/hip_flexion_l/speed	/jointset/hip_l/hip_adduction_l/speed	/jointset/hip_l/hip_rotation_l/speed	/jointset/back/lumbar_extension/speed	/jointset/patellofemoral_l/patellar_flexion_l/speed	/jointset/knee_l/knee_flexion_l/speed	/jointset/knee_l/knee_adduction_l/speed	/jointset/knee_l/knee_rotation_l/speed	/jointset/ankle_l/ankle_angle_l/speed	/jointset/subtalar_l/subtalar_angle_l/speed	/forceset/tau_hip_flexion_l	/forceset/tau_hip_adduction_l	/forceset/tau_hip_rotation_l	/forceset/tau_knee_flexion_l	/forceset/tau_ankle_angle_l	/forceset/tau_subtalar_angle_l	/forceset/tau_lumbar_extension	lambda_cid13_p0	lambda_cid13_p1	lambda_cid13_p2	lambda_cid13_p3	lambda_cid13_p4	lambda_cid13_p5	lambda_cid14_p0	/jointset/ground_pelvis/pelvis_tilt/accel	/jointset/ground_pelvis/pelvis_tx/accel	/jointset/ground_pelvis/pelvis_ty/accel	/jointset/hip_l/hip_flexion_l/accel	/jointset/hip_l/hip_adduction_l/accel	/jointset/hip_l/hip_rotation_l/accel	/jointset/back/lumbar_extension/accel	/jointset/patellofemoral_l/patellar_flexion_l/accel	/jointset/knee_l/knee_flexion_l/accel	/jointset/knee_l/knee_adduction_l/accel	/jointset/knee_l/knee_rotation_l/accel	/jointset/ankle_l/ankle_angle_l/accel	/jointset/subtalar_l/subtalar_angle_l/accel	gamma_cid13_p0	gamma_cid13_p1	gamma_cid13_p2	gamma_cid13_p3	gamma_cid13_p4	gamma_cid13_p5	gamma_cid14_p0
0.5	-0.1130527779403351	0.07372444302882221	0.8266462433276517	0.589627741696195	-0.4388097912931594	-0.3097756878566763	-0.2416188778555969	0.6560373468595588	0.6560373468595475	-0.1582727643503967	-0.1743702490624484	0.2141439878841689	0.02817665026992185	-0.1804467449939856	0.0205815300938756	-0.2750747618398586	1.10641319929073	-0.253500486848621	0.6564186947254342	-0.1683469387690935	1.57193597932309	1.571935979323069	0.01911688991381164	-0.002942397914219219	0.7606847122970948	0.1384512196429855	-0.06363534763313178	0.03297274815367528	-0.01326297791720733	-0.2145907860387532	-0.02566532994684378	0.02561598417248762	0.09659902124301438	-41.49337728854579	-9.344589603570439	7.418778005942534	4.932466441736633	-533.6445481123772	-71.37764993223153	-32.58931066505417	0.05056890219096709	0.09374572250714042	-0.2688062678819843	-0.495237518918757	0.5153249618102612	-0.2003501145742045	0.7368645368553611	-1.099632680069977	-1.099632680069976	-0.1452099532354594	0.05333071157040153	-0.4890055941005912	0.4138583573991905	-5.110752216882401e-08	-8.078966737498118e-07	2.770955671594187e-08	-1.692122103201571e-07	8.715114778491287e-09	-3.851664821092773e-07	-7.986659588122314e-08
0.51	-0.1148546270558304	0.0739349165715403	0.8238825889305749	0.6006655198474855	-0.4413191039763549	-0.3032234775086279	-0.2432652809398081	0.6716997043349906	0.6716997043349957	-0.1580888578095327	-0.1743981731305058	0.2217252708670704	0.02958124446593189	-0.179909696944117	0.02150951693808951	-0.2775984551044143	1.100987421078275	-0.2483462328976694	0.6539253015821265	-0.160918799739923	1.560322387612055	1.560322387612051	0.0176709555200678	-0.002645731608322101	0.7554685866811196	0.1424397022470419	-0.06566560121980614	0.0347329678325337	-0.01316117627260562	-0.2168904336488675	-0.02900802750891001	0.02588126120059308	0.09835624784971765	-42.6242753134914	-9.223964622879601	7.356344099399341	5.353607487082197	-535.3539094946947	-71.25735117708214	-31.8892696330455	0.05729615438358572	0.09174305435936411	-0.2355006591202941	-0.5894811396857054	0.5179201808552265	-0.2886084562442594	0.7480203358975278	-1.22417553110337	-1.224175531100889	-0.1434207743704954	0.01734511597512296	-0.5534401128827087	0.3872761612860678	-6.605894774997481e-08	-7.656793849737265e-07	8.379985014291559e-08	-1.545148117576941e-07	-1.066330792924377e-08	-3.995417405887252e-07	-8.326159636387064e-08
0.52	-0.1166507010112269	0.07415455356049676	0.8210954276401768	0.6116443935831951	-0.4437763852062168	-0.2966991560004204	-0.2448369562837378	0.687239535270422	0.6872395352704332	-0.1579192377310074	-0.1744232284303084	0.2292512877803047	0.03102491007785798	-0.1792917129742994	0.02241421934154337	-0.2797761405040897	1.094632316174748	-0.2430941961820122	0.6508409267574115	-0.1534013907127693	1.547430671321694	1.547430671321707	0.01625959744925836	-0.002368644267397014	0.7496314983636752	0.1462655028261858	-0.06769585480649382	0.03649318751138744	-0.01305937462813683	-0.219190081258971	-0.03235072507097746	0.02614653822869359	0.100113474456412	-43.76160164876634	-9.102387353302058	7.293956907892691	5.774833570764785	-537.1681310066026	-71.16503014631543	-31.18293015532212	0.0667560861807522	0.08908883435514028	-0.1996046949059265	-0.68110285713289	0.5348815147513974	-0.3185464508556297	0.7547185364519551	-1.355257595935222	-1.355257595935226	-0.1382946886485821	0.04941491857599935	-0.613198134394433	0.3813219524167162	-8.657049779088392e-08	-7.142242296262396e-07	1.635524501408461e-07	-1.344992330556281e-07	-4.055142837840699e-08	-4.207223520910575e-07	-8.875736636748744e-08
0.53	-0.1184400265096613	0.0743831112283649	0.8182882765065992	0.6225548506653708	-0.4461807348825765	-0.2902082760035574	-0.2463332796963021	0.7026440030617713	0.7026440030617825	-0.1577638337873301	-0.1744453343761885	0.2367158196557348	0.03250589290982751	-0.1785593078553298	0.02329237490113857	-0.2815939175703298	1.087308156132962	-0.2377649440448067	0.6472393920552443	-0.1458565507922199	1.533259955936615	1.533259955936616	0.01482733375698874	-0.002056620378227657	0.7431759924181773	0.1498980424309991	-0.06963590219341843	0.03821701334309068	-0.01298350936245583	-0.2215553219548725	-0.03550928095000926	0.02631146514570346	0.1017900784276764	-44.84262222141052	-8.939861552197641	7.216787830320963	6.180625107320783	-538.9593815527834	-70.99899081634324	-30.47339783902883	0.07860301128637495	0.086413219950492	-0.1638501663676939	-0.780705041254285	0.5336025743302709	-0.3953836014717086	0.7553778710066315	-1.478399832815907	-1.4783998328177	-0.1448611415910839	0.02151934352009556	-0.6765888206101826	0.3493524901602316	-9.547867794914057e-08	-6.609372259057575e-07	2.039906845435336e-07	-1.192364070700356e-07	-5.42842990498053e-08	-4.192050532914903e-07	-8.90790365199793e-08
0.54	-0.1202216038995994	0.07462029731246679	0.8154647504115823	0.6333875396544163	-0.4485314609353387	-0.2837562966780316	-0.2477539524794313	0.717900679434672	0.717900679434673	-0.1576225862670048	-0.1744644354392718	0.2441128240725132	0.03402222764297452	-0.1777420912751096	0.02413990258829075	-0.2830511327919584	1.079078697549065	-0.2323694714625945	0.6430607924900996	-0.1382712648256643	1.517872387630668	1.517872387630657	0.01342831278172214	-0.001767667711752835	0.7361260066333698	0.1533358830616756	-0.07157594958036601	0.03994083917478764	-0.01290764409689619	-0.2239205626507665	-0.0386678368290429	0.02647639206270565	0.1034666823989242	-45.9270497009415	-8.776679810074851	7.139446967160682	6.580525226701047	-540.8075995067397	-70.85499932273267	-29.76944687841583	0.08371837843086034	0.08296325986654876	-0.1274923259836322	-0.8621625655548363	0.5481256037527433	-0.4339594234510991	0.7628077456531656	-1.598628180108796	-1.5986281801088	-0.1316461452479788	0.04480067403709476	-0.7320941022563852	0.3423821575893594	-9.154908717339862e-08	-6.056234963257913e-07	2.009321740323348e-07	-1.092319457920312e-07	-5.014327635005924e-08	-3.925751728813107e-07	-8.367617066697116e-08
